<svg width="25" height="25" viewBox="0 0 25 25" fill="none" xmlns="http://www.w3.org/2000/svg">
<path d="M10.9375 10.5988C10.4954 10.1612 9.91469 9.89567 9.27867 9.89567C7.89363 9.89567 6.77083 11.1549 6.77083 12.7082C6.77083 14.2615 7.89363 15.5207 9.27867 15.5207C9.91469 15.5207 10.4954 15.2551 10.9375 14.8175M18.2292 10.5988C17.7871 10.1612 17.2064 9.89567 16.5703 9.89567C15.1853 9.89567 14.0625 11.1549 14.0625 12.7082C14.0625 14.2615 15.1853 15.5207 16.5703 15.5207C17.2064 15.5207 17.7871 15.2551 18.2292 14.8175M8.125 20.8332H16.875C18.6252 20.8332 19.5002 20.8332 20.1687 20.4926C20.7567 20.193 21.2348 19.7149 21.5344 19.1269C21.875 18.4584 21.875 17.5833 21.875 15.8332V9.1665C21.875 7.41634 21.875 6.54126 21.5344 5.87278C21.2348 5.28478 20.7567 4.80671 20.1687 4.50711C19.5002 4.1665 18.6252 4.1665 16.875 4.1665H8.125C6.37484 4.1665 5.49975 4.1665 4.83128 4.50711C4.24327 4.80671 3.76521 5.28478 3.4656 5.87278C3.125 6.54126 3.125 7.41634 3.125 9.1665V15.8332C3.125 17.5833 3.125 18.4584 3.4656 19.1269C3.76521 19.7149 4.24327 20.193 4.83128 20.4926C5.49975 20.8332 6.37484 20.8332 8.125 20.8332Z" stroke="#6898F8" stroke-width="1.5" stroke-linecap="round" stroke-linejoin="round"/>
</svg>
