<svg width="25" height="25" viewBox="0 0 25 25" fill="none" xmlns="http://www.w3.org/2000/svg">
<path d="M13.5418 3.125H10.2085C8.45833 3.125 7.58325 3.125 6.91478 3.4656C6.32677 3.76521 5.8487 4.24327 5.5491 4.83128C5.2085 5.49975 5.2085 6.37484 5.2085 8.125V16.875C5.2085 18.6252 5.2085 19.5002 5.5491 20.1687C5.8487 20.7567 6.32677 21.2348 6.91478 21.5344C7.58325 21.875 8.45833 21.875 10.2085 21.875H14.7918C16.542 21.875 17.4171 21.875 18.0855 21.5344C18.6736 21.2348 19.1516 20.7567 19.4512 20.1687C19.7918 19.5002 19.7918 18.6252 19.7918 16.875V9.375M13.5418 3.125L19.7918 9.375M13.5418 3.125V6.04167C13.5418 7.20844 13.5418 7.79183 13.7689 8.23748C13.9686 8.62948 14.2873 8.94819 14.6793 9.14793C15.125 9.375 15.7084 9.375 16.8752 9.375H19.7918M15.1043 13.5417C15.7437 14.0535 16.146 14.7972 16.146 15.625C16.146 16.4528 15.7437 17.1965 15.1043 17.7083M8.85433 14.5833H10.2432L11.9793 12.5V18.75L10.2432 16.6667H8.85433V14.5833Z" stroke="#FFA683" stroke-width="1.5" stroke-linecap="round" stroke-linejoin="round"/>
</svg>
